<svg xmlns="http://www.w3.org/2000/svg" xmlns:xlink="http://www.w3.org/1999/xlink" width="564" height="618" viewBox="0 0 564 618">
  <defs>
    <linearGradient id="linear-gradient" x1="0.01" y1="0.022" x2="0.988" y2="0.981" gradientUnits="objectBoundingBox">
      <stop offset="0" stop-color="#1c2026"/>
      <stop offset="0.485" stop-color="#212429"/>
      <stop offset="1" stop-color="#1b2026"/>
    </linearGradient>
    <filter id="Rectangle_2" x="0" y="29" width="564" height="589" filterUnits="userSpaceOnUse">
      <feOffset dx="8" dy="8" input="SourceAlpha"/>
      <feGaussianBlur stdDeviation="12" result="blur"/>
      <feFlood flood-color="#090e14" flood-opacity="0.4"/>
      <feComposite operator="in" in2="blur"/>
      <feComposite in="SourceGraphic"/>
    </filter>
    <linearGradient id="linear-gradient-2" x1="0.829" y1="0.53" x2="0.705" y2="0.457" gradientUnits="objectBoundingBox">
      <stop offset="0" stop-color="#302624" stop-opacity="0.502"/>
      <stop offset="0.242" stop-color="#302624" stop-opacity="0.361"/>
      <stop offset="0.995" stop-color="#302624" stop-opacity="0"/>
    </linearGradient>
    <linearGradient id="linear-gradient-3" x1="0.523" y1="0.157" x2="0.466" y2="0.798" xlink:href="#linear-gradient-2"/>
    <linearGradient id="linear-gradient-4" x1="0.377" y1="0.178" x2="-0.386" y2="1.011" gradientUnits="objectBoundingBox">
      <stop offset="0" stop-color="#cfd4d8"/>
      <stop offset="0.326" stop-color="#cfd4d8" stop-opacity="0.631"/>
      <stop offset="0.652" stop-color="#cfd4d8" stop-opacity="0.29"/>
      <stop offset="0.884" stop-color="#cfd4d8" stop-opacity="0.082"/>
      <stop offset="1" stop-color="#cfd4d8" stop-opacity="0"/>
    </linearGradient>
    <radialGradient id="radial-gradient" cx="0.5" cy="0.5" r="0.5" gradientTransform="matrix(0.999, 0.045, -0.045, 0.999, 679.554, 15.445)" gradientUnits="objectBoundingBox">
      <stop offset="0" stop-color="#f69d7d" stop-opacity="0.702"/>
      <stop offset="0.141" stop-color="#f69d7d" stop-opacity="0.627"/>
      <stop offset="0.422" stop-color="#f69d7d" stop-opacity="0.443"/>
      <stop offset="0.813" stop-color="#f69d7d" stop-opacity="0.149"/>
      <stop offset="1" stop-color="#f69d7d" stop-opacity="0"/>
    </radialGradient>
    <radialGradient id="radial-gradient-2" cx="0.5" cy="0.5" r="0.5" gradientTransform="matrix(0.999, 0.045, -0.045, 0.999, 688.598, 15.65)" xlink:href="#radial-gradient"/>
    <linearGradient id="linear-gradient-5" x1="0.453" y1="1.176" x2="0.516" y2="0.309" gradientUnits="objectBoundingBox">
      <stop offset="0" stop-color="#f8e8d8" stop-opacity="0.2"/>
      <stop offset="0.408" stop-color="#f8e8d8" stop-opacity="0.129"/>
      <stop offset="1" stop-color="#f8e8d8" stop-opacity="0"/>
    </linearGradient>
  </defs>
  <g id="Edit_me" data-name="Edit me" transform="translate(-9 31)">
    <g transform="matrix(1, 0, 0, 1, 9, -31)" filter="url(#Rectangle_2)">
      <rect id="Rectangle_2-2" data-name="Rectangle 2" width="492" height="517" rx="20" transform="translate(28 57)" fill="url(#linear-gradient)"/>
    </g>
    <g id="Group_18" data-name="Group 18" transform="translate(44 -31)">
      <path id="Path_1" data-name="Path 1" d="M549.159,170.72s-5.2-9.018-9.714-12.28-11.705-2.621-17.305-8.776-14.311-.091-14.468-11.75,4.98-8.539-.932-14.069,5.3-14.881,5.3-14.881-29.746-13.656-26.792-19.871,25.593,8.186,54.8,12.275c0,0,11.65-6.079,14.659-2.183s.212,38.729.212,38.729l11.821,21.575Z" transform="translate(-485.039 132.727)" fill="#d1e0fb"/>
      <path id="Path_2" data-name="Path 2" d="M517.14,108.406l-6.452-10.314s-20.138,11.221-25.648,26.8l10.072,6.856Z" transform="translate(-435.442 175.296)" fill="#fff"/>
      <path id="Path_3" data-name="Path 3" d="M509.446,90.3c-10.752,9.381-18.263,21.545-15.44,24.459s15.44-6.276,15.44-6.276l-1.417,10.5s-12.839,6.967-17.154-3S509.446,90.3,509.446,90.3Z" transform="translate(-454.44 143.797)" fill="#588def"/>
      <path id="Path_4" data-name="Path 4" d="M600.278,91.1c-3.937,8.555-41.038,99.664-41.038,99.664s-10.6-11.685-9.744,0l-59.422-60.975s-27.4,9.3-29.59,33.462c0,0,73.834,101.524,100.627,104.277s51.1-72.645,51.1-72.645Z" transform="translate(-406.727 147.05)" fill="#2465de"/>
      <path id="Path_5" data-name="Path 5" d="M600.278,91.1c-3.937,8.555-41.038,99.664-41.038,99.664s-10.6-11.685-9.744,0l-59.422-60.975s-27.4,9.3-29.59,33.462c0,0,73.834,101.524,100.627,104.277s51.1-72.645,51.1-72.645Z" transform="translate(-406.727 147.05)" fill="url(#linear-gradient-2)"/>
      <path id="Path_6" data-name="Path 6" d="M438.026,130.3s-7.269-.4-10.389-4.219,7.1-35.125,7.1-35.125-9.709-8.388-9.855-20.159,7.652-17.84,19.78-17.094,29.63,16.872,29.63,16.872L465.4,75.155s-2.868,26.7-6.659,33.552S438.026,130.3,438.026,130.3Z" transform="translate(-89.32 -4.332)" fill="#1e54b8"/>
      <path id="Path_7" data-name="Path 7" d="M453.248,62.973c-3.559,16.67-15.335,57.834-15.335,57.834l-10.475-11.937L432.7,57.413Z" transform="translate(-81.188 10.916)" fill="#1e54b8"/>
      <path id="Path_11" data-name="Path 11" d="M466.07,142.895s-11.239,121.837-12.646,138.452h74.593l12.7-55.428,8.514-2.364,5.033,57.792h65.25c2.591-12.376,2.281-154.17,2.281-154.17Z" transform="translate(-269.657 292.826)" fill="#2465de"/>
      <path id="Path_12" data-name="Path 12" d="M431.385,173.447c31.349,10.863,102.305,27.065,160.044,3.382.086-14.835-.131-34.505-.086-44.93L433.991,145.576C433.275,154.7,432.378,160.785,431.385,173.447Z" transform="translate(-239.286 311.912)" fill="#1e54b8"/>
      <g id="Group_1" data-name="Group 1" transform="translate(201.596 411.898)">
        <path id="Path_13" data-name="Path 13" d="M433.011,132.853c1.22-4.471,2.2-7.284,2.2-7.284l138.923,5.7s.489,2.838,1.245,7.687c-.686.953-1.245,1.669-1.245,1.669C512.143,165.932,467.249,165.957,433.011,132.853Z" transform="translate(-433.011 -125.569)" fill="#330e00"/>
      </g>
      <path id="Path_14" data-name="Path 14" d="M618.157,117.185,593.8,206.646l12.381,83.583s-109.978,41.8-178.993-3.236l14.175-186.781Z" transform="translate(-244.857 183.863)" fill="#2465de"/>
      <g id="Group_3" data-name="Group 3" transform="translate(189.397 209.505)">
        <g id="Group_2" data-name="Group 2">
          <path id="Path_15" data-name="Path 15" d="M447.485,98.429c-14.74,6.205-35.438,18.631-17.255,61.56l6.326,132.118s-7.057,20.36-2.606,24.68c34.248,33.22,79.183,33.22,141.247,7.884,0,0,3.267-4.164,3.69-5.837,2.274-8.978-5.308-34.041-5.308-34.041l34.687-107.83s34.193-46.538,11.554-63.415C584.2,87,505.813,73.875,447.485,98.429Z" transform="translate(-423.116 -85.419)" fill="#2465de"/>
        </g>
      </g>
      <path id="Path_16" data-name="Path 16" d="M426.374,283.263l8.227-108.4a214.236,214.236,0,0,1,37.378,63.46,264.343,264.343,0,0,0,92.743-80.357L537.592,230.5c23.455-27.523,60.42-101.842,83.871-129.36L592.987,202.916,605.367,286.5S495.389,328.3,426.374,283.263Z" transform="translate(-244.039 187.593)" fill="url(#linear-gradient-3)"/>
      <path id="Path_17" data-name="Path 17" d="M460.417,84.913s-13.686-.59-16.171.948-8.715,19.508-9.966,22.346,16.635,19.564,16.635,19.564-14.76,24.232-14.14,26.188,26.792,107.881,26.792,107.881,63.46-94.653,64.756-99.357-6.079-29.056-6.079-29.056,18.792-13.847,19.937-16.872,3.544-22.326,0-24.776c-2.183-1.507-14.815-4.35-14.815-4.35Z" transform="translate(-206.159 121.592)" fill="#1e56bf"/>
      <path id="Path_18" data-name="Path 18" d="M506.662,92.029h0c0,.005-19.453,50.2-36.582,94.4-13.474,34.772-28.355-1.6-28.355-1.6l-4.2-99.669c.933-.066,2.878-.313,3.806-.363Z" transform="translate(-185.455 121.564)" fill="#fff"/>
      <path id="Path_19" data-name="Path 19" d="M443.036,116.991c-3.892-.923-4.073-13.116-4.073-13.116l-.781-18.45.126-.277c.973-.076,2.783-.3,3.67-.353l60.209,6.669c-.217.716,2.2,5.737,1.764,7.143-3.488,10.268-14.73,25.033-16.983,25.4-2.646.418-9.381-7.294-10.284-9.815-1.386,1.245-3.755,4.98-5.137,6.231-.736,17.941-.086,41.557.2,63.374-10.43,26.913-20.164,52.022-24.358,62.855-.761,1.008-1.527,1.961-2.294,2.883L442.85,196.2q10.185-38.518,20.375-77.03c-2.157-2.949-4.945-5.147-7.1-8.1C452.523,114.572,448.057,116.986,443.036,116.991Z" transform="translate(-186.101 121.564)" fill="url(#linear-gradient-4)"/>
      <g id="Group_5" data-name="Group 5" transform="translate(270.863 142.521)">
        <g id="Group_4" data-name="Group 4" transform="translate(0)">
          <path id="Path_20" data-name="Path 20" d="M434.587,146.127c5.842,3.372,17.91,5.137,24.469,5.293,9.744.267,5.827-5.434,9.079-6.3l31.612-72.988L442.562,97.9l-.131,2.425Z" transform="translate(-434.587 -72.131)" fill="#d1e0fb"/>
        </g>
      </g>
      <g id="Group_8" data-name="Group 8" transform="translate(274.563 142.521)">
        <g id="Group_7" data-name="Group 7" transform="translate(0)">
          <g id="Group_6" data-name="Group 6">
            <path id="Path_21" data-name="Path 21" d="M446.6,123.417a57.27,57.27,0,0,0,17.557-5.122,119.564,119.564,0,0,0,15.586-8.529l16.3-37.636L438.862,97.9l-.131,2.425-4.144,24.2C438.584,124.128,442.6,123.886,446.6,123.417Z" transform="translate(-434.587 -72.131)" fill="#588def"/>
          </g>
        </g>
      </g>
      <path id="Path_22" data-name="Path 22" d="M442.843,175.141l20.355-68.7-8.9-10,15.118-9.25,11.564,10.662-10.762,9.532a638.08,638.08,0,0,1,.988,69.353c-13.479,34.772-25.517,65.839-25.517,65.839Z" transform="translate(-186.573 131.25)" fill="#0f49b4"/>
      <g id="Group_10" data-name="Group 10" transform="translate(250.393 194.916)">
        <g id="Group_9" data-name="Group 9" transform="translate(0)">
          <path id="Path_23" data-name="Path 23" d="M498.891,84.617s-22.992,22.014-28.884,21.056-8.973-23.148-8.973-23.148-21,6.039-23.566,8.968,3.705,31.672,6.478,33.068c5.812,2.934,23.324-16.62,26.515-14.125s12.209,19.191,15.188,18.858,26.651-23.687,25.315-32.277S498.891,84.617,498.891,84.617Z" transform="translate(-436.863 -82.525)" fill="#fff"/>
        </g>
      </g>
      <path id="Path_24" data-name="Path 24" d="M539.772,117.149s19.745-4.507,17.013,19.075-19.811,24.045-24.847,25.063c0,0-9.4,41.991-61.2,37.968s-43.307-44.128-42.924-70.724-2.591-72.781,31.314-76.183C493.335,48.915,542.771,51.168,539.772,117.149Z" transform="translate(-183.168 -13.489)" fill="#d1e0fb"/>
      <g id="Group_11" data-name="Group 11" transform="translate(268.59 140.131)">
        <path id="Path_25" data-name="Path 25" d="M473.965,71.657a54.4,54.4,0,0,1-32.559,7.269c3.221,8.5,6.629,14.367,19.145,12.37C470.8,89.663,476.2,80.59,473.965,71.657Z" transform="translate(-441.406 -71.657)" fill="#b4ccfb"/>
        <path id="Path_26" data-name="Path 26" d="M466.972,72.449c.676,7.425-4.98,14.956-13.7,16.348a20.561,20.561,0,0,1-9.139-.872q-1.369-4.325-2.732-8.65,11.743-3.251,23.491-6.5A7.354,7.354,0,0,1,466.972,72.449Z" transform="translate(-433.933 -68.462)" fill="#fff"/>
        <path id="Path_27" data-name="Path 27" d="M465.649,72.963A24.057,24.057,0,0,1,454,80.142a47,47,0,0,1-11.186,1.669c-.358-1.139-.721-2.279-1.079-3.418q10.351-2.866,20.7-5.727Z" transform="translate(-434.274 -67.58)" fill="#cfd4d8"/>
        <path id="Path_28" data-name="Path 28" d="M441.4,79.168a24.823,24.823,0,0,0,1.563,3.892c.5.7,15.158,2.011,27.544-6.432a13.673,13.673,0,0,0-.469-4.97C462.791,76,449.977,79.128,441.4,79.168Z" transform="translate(-437.481 -71.657)" fill="#fff"/>
      </g>
      <g id="Group_12" data-name="Group 12" transform="translate(275.37 113.526)">
        <path id="Path_29" data-name="Path 29" d="M450.7,93.685c.04-.5-1.653-.953-2.546-3.156a6.385,6.385,0,0,1-.323-3.942A24.038,24.038,0,0,1,449.8,81.36c3.614-7.854,5.832-14.558,4.95-14.961s-4.537,5.631-8.156,13.489a19.62,19.62,0,0,0-1.981,6.256,9.164,9.164,0,0,0,.207,3.151,7.51,7.51,0,0,0,1.19,2.505,5.251,5.251,0,0,0,3.247,2.218C450.2,94.164,450.69,93.907,450.7,93.685Z" transform="translate(-444.56 -66.379)" fill="#588def"/>
      </g>
      <g id="Group_13" data-name="Group 13" transform="translate(296.551 93.483)">
        <path id="Path_30" data-name="Path 30" d="M437.363,67.65c.292.418,1.759-.166,4.063-.781a23.721,23.721,0,0,1,17.668,1.689c1.079.539,1.951.978,2.576,1.29.65.307,1.094.434,1.265.252s.066-.615-.328-1.255a10.63,10.63,0,0,0-2.137-2.369,18.085,18.085,0,0,0-20-1.91C438.114,65.9,437.1,67.282,437.363,67.65Z" transform="translate(-437.321 -62.403)" fill="#1e54b8"/>
      </g>
      <g id="Group_14" data-name="Group 14" transform="translate(250.968 90.163)">
        <path id="Path_31" data-name="Path 31" d="M471.971,69.44c.333-.313-.4-1.855-2.46-3.619a18.073,18.073,0,0,0-20-1.921,10.863,10.863,0,0,0-2.546,1.916c-.509.56-.686.973-.56,1.175s.59.171,1.285-.01c.676-.187,1.618-.449,2.778-.771A23.7,23.7,0,0,1,468.13,67.9C470.278,68.946,471.6,69.8,471.971,69.44Z" transform="translate(-446.365 -61.744)" fill="#1e54b8"/>
      </g>
      <path id="Path_32" data-name="Path 32" d="M434.974,82.771a13.894,13.894,0,1,0,14.513-13.253A13.891,13.891,0,0,0,434.974,82.771Z" transform="translate(-128.602 59.775)" fill="url(#radial-gradient)"/>
      <path id="Path_33" data-name="Path 33" d="M447.441,82.2a13.895,13.895,0,1,0,14.513-13.248A13.9,13.9,0,0,0,447.441,82.2Z" transform="translate(-203.914 57.484)" fill="url(#radial-gradient-2)"/>
      <path id="Path_34" data-name="Path 34" d="M446.542,71.75a6.959,6.959,0,1,0,7.269-6.634A6.959,6.959,0,0,0,446.542,71.75Z" transform="translate(-184.656 42.013)" fill="#1e54b8"/>
      <path id="Path_35" data-name="Path 35" d="M442.532,70.724c1.8,6.241-.756,12.819-3.272,18.808-.746,1.779-1.573,3.655-3.166,4.744s-4.194.928-5.031-.812c-.812-1.684.383-3.579,1.321-5.2s1.462-4.038-.106-5.051c-.731-.469-1.689-.428-2.46-.837-1.668-.882-1.658-3.267-1.23-5.111a28.715,28.715,0,0,1,2.808-7.3c1.245-2.248,3.2-4.542,5.767-4.5C439.851,65.512,441.786,68.143,442.532,70.724Z" transform="translate(-75.66 43.457)" fill="#588def"/>
      <g id="Group_16" data-name="Group 16" transform="translate(327.513 56.659)">
        <path id="Path_39" data-name="Path 39" d="M458.361,102.1s-8.121,5.974-10.354,19.181h-5.968V98.465s-18.072-4.97-11.216-31.521,33.759-.176,33.759-.176Z" transform="translate(-429.27 -55.098)" fill="#1e54b8"/>
      </g>
      <path id="Path_40" data-name="Path 40" d="M486.522,149.327c-3.135-6.563-6.513-13-10.258-19.251-2.3,1.744-4.522,3.418-6.5,4.91-6.987,5.263-11.771,8.8-12.7,9.305-4.4,2.45-22.135,1.709-23.077,13.459,0,0-5.1,5.8-9.4,11.337-4.29,5.525,11.564,6.19,11.685,12.96s11.544,3.594,13.212,10.46c1.684,6.886,1.971,6.3,7.723,6.493,5.732.187,11.493-4.133,12.386-13.868,0,0,11.907-.348,14.568-10.9.081-.338.146-.671.2-.993C485.64,164.894,477.539,156.138,486.522,149.327Z" transform="translate(-96.365 304.541)" fill="#d1e0fb"/>
      <path id="Path_41" data-name="Path 41" d="M450.419,154.335l-6.886,7.269s-14.3-7.924-21.782-23.8l7.687-9.643Z" transform="translate(-49.691 296.811)" fill="#fff"/>
      <path id="Path_42" data-name="Path 42" d="M440.07,310.33c-15.526-9.366-29.293-31.753-29.293-31.753l41.759-63.586-46.114-59.2L423.576,91c27.71,23.042,90.026,107.417,91.9,129.965C516.138,229.009,440.07,310.33,440.07,310.33Z" transform="translate(-37.478 146.634)" fill="#2465de"/>
      <path id="Path_43" data-name="Path 43" d="M503.46,105.624a45.373,45.373,0,0,0,43.458,2.969c24.176-10.944,24.06-27.115,24.06-27.115s-21.152-.842-35.508-16.771-56.191-32.1-87.747-10.208-21.636,54.013-2.732,59.432,29.605-7.7,34.389-4.8S491.7,115.156,503.46,105.624Z" transform="translate(-198.425 -43.858)" fill="#2465de"/>
      <path id="Path_44" data-name="Path 44" d="M426.646,53.688a52.337,52.337,0,0,1,6.936-6.992,216.761,216.761,0,0,0,124.037,34.44,32.676,32.676,0,0,1-2.9,3.866A76.611,76.611,0,0,1,565.1,91.439a148.687,148.687,0,0,1-54.855,2.989A149.625,149.625,0,0,1,426.646,53.688Z" transform="translate(-189.048 -32.391)" fill="url(#linear-gradient-5)"/>
      <g id="Group_17" data-name="Group 17" transform="translate(295.001 110.407)">
        <path id="Path_45" data-name="Path 45" d="M438.3,71.661c.338.393,1.593-.176,3.529-.852a29.627,29.627,0,0,1,3.418-.973A28.145,28.145,0,0,1,449.5,69.3a27.611,27.611,0,0,1,4.28.222,29.26,29.26,0,0,1,3.483.711c1.911.489,3.327,1.033,3.584.585.222-.388-.489-1.578-2.586-2.868a14.485,14.485,0,0,0-3.826-1.613,17.247,17.247,0,0,0-10.082.378,14.59,14.59,0,0,0-3.7,1.9C438.734,70,438,71.324,438.3,71.661Z" transform="translate(-438.231 -65.76)" fill="#1e54b8"/>
      </g>
    </g>
  </g>
</svg>
