<svg xmlns="http://www.w3.org/2000/svg" width="38.4" height="48" viewBox="0 0 38.4 48">
  <path id="_-Color" data-name="🎨-Color" d="M23.2,2a9.6,9.6,0,0,1,9.6,9.6v4.8H37a5.4,5.4,0,0,1,5.4,5.4V44.6A5.4,5.4,0,0,1,37,50H9.4A5.4,5.4,0,0,1,4,44.6V21.8a5.4,5.4,0,0,1,5.4-5.4h4.2V11.6A9.6,9.6,0,0,1,23.2,2ZM37,20H9.4a1.8,1.8,0,0,0-1.8,1.8V44.6a1.8,1.8,0,0,0,1.8,1.8H37a1.8,1.8,0,0,0,1.8-1.8V21.8A1.8,1.8,0,0,0,37,20ZM23.2,29.6a3.6,3.6,0,1,1-3.6,3.6A3.6,3.6,0,0,1,23.2,29.6Zm0-24a6,6,0,0,0-6,6v4.8h12V11.6A6,6,0,0,0,23.2,5.6Z" transform="translate(-4 -2)" fill="#377dff"/>
</svg>
