<svg xmlns="http://www.w3.org/2000/svg" width="52" height="52" viewBox="0 0 52 52">
  <g id="_-Product-Icons" data-name="ðŸ”-Product-Icons" transform="translate(-2 -2)">
    <g id="ic_fluent_help_circle_24_regular" transform="translate(2 2)">
      <path id="_-Color" data-name="ðŸŽ¨-Color" d="M28,2A26,26,0,1,1,2,28,26,26,0,0,1,28,2Zm0,4.334A21.666,21.666,0,1,0,49.666,28,21.69,21.69,0,0,0,28,6.334ZM28,37.1a2.6,2.6,0,1,1-2.6,2.6A2.6,2.6,0,0,1,28,37.1Zm0-22.75a7.15,7.15,0,0,1,7.15,7.15c0,2.628-.773,4.092-2.733,6.132l-.438.446c-1.617,1.617-2.029,2.3-2.029,3.821a1.95,1.95,0,1,1-3.9,0c0-2.628.774-4.092,2.733-6.132l.438-.446c1.617-1.617,2.029-2.3,2.029-3.821a3.25,3.25,0,0,0-6.483-.332l-.017.332a1.95,1.95,0,1,1-3.9,0A7.15,7.15,0,0,1,28,14.35Z" transform="translate(-2 -2)" fill="#377dff"/>
    </g>
  </g>
</svg>
